PathFileType	4	(X/Y/Z)	SUBJ11_1_walk_RCNL2025.trc
DataRate	CameraRate	NumFrames	NumMarkers	Units	OrigDataRate	OrigDataStartFrame	OrigNumFrames
100	100	10	25	mm	100	1	443
Frame#	Time	R_Shoulder			L_Shoulder			C7			J_Notch			R_Elbow			L_Elbow			R_Wrist			L_Wrist			R_Asis			L_Asis			Sacral			Thoracic			Sternum			R_Thigh_Lateral			R_Knee_Lateral			R_Shank_Lateral			R_Ankle_Lateral			R_Heel			R_Toe			L_Thigh_Lateral			L_Knee_Lateral			L_Shank_Lateral			L_Ankle_Lateral			L_Heel			L_Toe		
		X1	Y1	Z1	X2	Y2	Z2	X3	Y3	Z3	X4	Y4	Z4	X5	Y5	Z5	X6	Y6	Z6	X7	Y7	Z7	X8	Y8	Z8	X9	Y9	Z9	X10	Y10	Z10	X11	Y11	Z11	X12	Y12	Z12	X13	Y13	Z13	X14	Y14	Z14	X15	Y15	Z15	X16	Y16	Z16	X17	Y17	Z17	X18	Y18	Z18	X19	Y19	Z19	X20	Y20	Z20	X21	Y21	Z21	X22	Y22	Z22	X23	Y23	Z23	X24	Y24	Z24	X25	Y25	Z25
1	0.00000000	-3455.461426	1429.553467	264.067596	-3453.112061	1436.416138	-134.907700	-3409.239502	1355.285767	69.231712	-3342.065186	1382.279663	70.660683	-3474.929688	1086.923096	350.984222	-3507.055176	1097.437500	-221.566528	-3349.852539	857.545624	326.766678	-3465.706421	835.364075	-212.265266	-3381.450928	956.733765	213.975494	-3357.757568	961.289673	-78.159065	-3549.147217	977.134094	52.941940	-3478.328857	1330.922852	64.627632	-3401.147705	1231.040894	67.876564	-3459.916992	606.268494	241.109238	-3449.078857	456.301178	166.712204	-3467.291260	247.177490	194.493179	-3476.202637	49.315174	117.409843	-3527.707275	34.484112	60.997448	-3337.402832	33.353191	102.678535	-3337.968506	631.609131	-184.234406	-3295.241699	488.544312	-110.842049	-3393.098145	308.991791	-144.274307	-3496.225830	146.098145	-74.313889	-3544.227051	164.658447	-17.667196	-3395.658691	60.032303	-51.842285
2	0.01000000	-3444.971436	1429.291260	264.192749	-3442.258789	1435.133667	-134.818954	-3432.437012	1398.614014	69.316139	-3335.942139	1381.679321	71.219421	-3462.084961	1086.946045	352.789520	-3499.824219	1096.542603	-220.292267	-3331.913208	860.479523	328.356094	-3464.278198	833.693146	-212.647064	-3370.919922	956.120056	214.974503	-3349.985840	960.181885	-77.087624	-3538.126709	976.341797	52.795883	-3500.979492	1316.832275	63.482117	-3346.214600	1213.986938	70.242973	-3453.966553	606.073975	241.178284	-3445.840088	456.221893	166.441803	-3465.962646	247.235504	194.300385	-3476.079590	49.380337	117.199371	-3527.645264	34.611103	60.765385	-3337.370850	33.347874	102.711395	-3322.470703	631.970520	-182.692703	-3278.387207	488.908020	-108.846031	-3368.254883	304.619110	-143.127823	-3464.025146	137.122604	-74.128082	-3513.100586	153.082748	-17.822321	-3358.367676	56.525276	-51.209209
3	0.02000000	-3434.445557	1428.760498	264.299194	-3431.274170	1433.690918	-134.747452	-3449.067627	1433.247070	69.285873	-3328.197266	1380.856079	71.913963	-3449.233154	1086.751831	354.545837	-3492.531982	1095.542969	-219.054474	-3314.237915	863.194061	329.897873	-3462.590454	832.089722	-212.918076	-3360.386230	955.359680	215.859573	-3340.811768	958.846130	-75.964584	-3527.128418	975.327637	52.661087	-3517.112305	1305.143311	62.467674	-3299.827393	1199.867676	72.326813	-3447.744385	605.795471	241.323547	-3442.239014	456.068481	166.311691	-3464.392334	247.217606	194.176758	-3475.921631	49.425709	116.998703	-3527.571533	34.760010	60.550716	-3337.308350	33.312672	102.699669	-3307.892578	631.768005	-180.911667	-3262.309814	488.898407	-106.775940	-3343.851074	300.214874	-141.955063	-3431.361572	128.056931	-73.877853	-3481.433838	141.265030	-17.925438	-3320.906982	53.220520	-50.425930
4	0.03000000	-3423.880371	1428.006226	264.381317	-3420.177734	1432.129639	-134.692429	-3457.788818	1457.503540	69.198807	-3319.114014	1379.807861	72.674538	-3436.347656	1086.390381	356.230316	-3485.163086	1094.481445	-217.859009	-3296.846436	865.693451	331.374039	-3460.606445	830.575195	-213.061523	-3349.896729	954.485352	216.666992	-3330.587646	957.324707	-74.879211	-3516.178223	974.137573	52.550648	-3525.465332	1296.430542	61.649563	-3263.724854	1189.325684	74.045815	-3441.253418	605.437622	241.534790	-3438.248779	455.831482	166.326279	-3462.560059	247.121078	194.127686	-3475.720459	49.451359	116.806862	-3527.483154	34.940880	60.356060	-3337.197266	33.233524	102.621346	-3294.186035	631.031555	-178.940094	-3247.002197	488.489899	-104.646919	-3319.812988	295.766174	-140.747208	-3398.246826	119.040298	-73.543701	-3449.244629	129.384613	-17.972715	-3283.421143	50.277813	-49.453571
5	0.04000000	-3413.266602	1427.072021	264.431519	-3408.993896	1430.487183	-134.654419	-3459.190186	1472.207397	69.090881	-3309.040771	1378.541748	73.406830	-3423.419678	1085.909058	357.823395	-3477.707520	1093.394653	-216.713898	-3279.758179	867.984863	332.770920	-3458.295898	829.166412	-213.066078	-3339.509521	953.533203	217.440399	-3319.657715	955.660400	-73.893669	-3505.277100	972.808472	52.470715	-3526.673340	1290.492920	61.022758	-3237.122314	1182.075562	75.400681	-3434.495605	604.998962	241.797684	-3433.842041	455.500305	166.482193	-3460.446045	246.948196	194.153259	-3475.467529	49.459949	116.619293	-3527.375488	35.163467	60.179989	-3337.025146	33.109497	102.472656	-3281.273193	629.801331	-176.846954	-3232.441895	487.663849	-102.471848	-3296.050293	291.270996	-139.483185	-3364.707031	110.220490	-73.091423	-3416.550537	117.620575	-17.941080	-3245.997559	47.855972	-48.259792
6	0.05000000	-3402.587158	1425.996704	264.440521	-3397.747559	1428.793701	-134.635086	-3454.758545	1479.338623	68.979736	-3298.305420	1377.071655	74.028503	-3410.459473	1085.346802	359.310059	-3470.162354	1092.310669	-215.628754	-3262.992798	870.077332	334.083908	-3455.628540	827.870972	-212.926201	-3329.267334	952.535828	218.211349	-3308.306641	953.886230	-73.034203	-3494.407959	971.369141	52.421135	-3522.229492	1286.760132	60.549473	-3218.061768	1177.402100	76.431702	-3427.471436	604.475647	242.101028	-3428.999023	455.064148	166.768631	-3458.035645	246.701385	194.247284	-3475.157471	49.456245	116.430061	-3527.243164	35.436756	60.019108	-3336.792480	32.952614	102.272278	-3269.063477	628.118652	-174.711105	-3218.591309	486.413666	-100.260445	-3272.484863	286.754974	-138.137131	-3330.791016	101.755318	-72.479210	-3383.382568	106.155228	-17.793179	-3208.703857	46.102848	-46.817364
7	0.06000000	-3391.819336	1424.812134	264.399384	-3386.460693	1427.069702	-134.636993	-3446.198730	1481.148193	68.869614	-3287.171387	1375.418945	74.493202	-3397.492676	1084.730225	360.680695	-3462.529297	1091.247314	-214.614548	-3246.569702	871.979126	335.315872	-3452.569702	826.684814	-212.642250	-3319.173096	951.508545	218.989075	-3296.737061	952.021362	-72.296448	-3483.546387	969.843140	52.395416	-3513.818359	1284.564453	60.184387	-3204.298340	1174.488281	77.190498	-3420.181396	603.864807	242.443008	-3423.714600	454.513428	167.169357	-3455.328125	246.383301	194.397888	-3474.790527	49.446434	116.234077	-3527.082764	35.767918	59.868824	-3336.508789	32.779243	102.048141	-3257.478760	626.017151	-172.607788	-3205.397949	484.747314	-98.018379	-3249.075195	282.275757	-136.685059	-3296.577148	93.812859	-71.667633	-3349.799072	95.177200	-17.488726	-3171.616455	45.151436	-45.108490
8	0.07000000	-3380.939453	1423.542480	264.301056	-3375.148438	1425.324829	-134.663376	-3435.048096	1479.657349	68.756638	-3275.824463	1373.607178	74.786934	-3384.555908	1084.071533	361.930725	-3454.812744	1090.211060	-213.683365	-3230.507446	873.693848	336.471497	-3449.080811	825.592896	-212.221397	-3309.183350	950.441895	219.762344	-3285.076660	950.073792	-71.659286	-3472.668457	968.249573	52.380722	-3502.943848	1283.297974	59.887943	-3193.802490	1172.599976	77.727066	-3412.630859	603.165039	242.829727	-3418.005127	453.841705	167.666229	-3452.346191	246.000031	194.590958	-3474.373779	49.438511	116.029121	-3526.891602	36.160969	59.723766	-3336.185303	32.602238	101.822304	-3246.476562	623.515442	-170.594193	-3192.797363	482.689423	-95.746788	-3225.828613	277.918365	-135.109711	-3262.181152	86.564209	-70.627464	-3315.896973	84.878510	-16.994959	-3134.838867	45.117836	-43.131004
9	0.08000000	-3369.925293	1422.204102	264.141327	-3363.818359	1423.558472	-134.717560	-3422.506348	1476.437012	68.633331	-3264.377930	1371.657227	74.911552	-3371.690674	1083.369751	363.059784	-3447.017090	1089.197632	-212.847839	-3214.823730	875.216156	337.552414	-3445.122681	824.571594	-211.678230	-3299.224121	949.308777	220.507996	-3273.393066	948.044128	-71.096832	-3461.753174	966.602478	52.359600	-3490.769287	1282.483398	59.630978	-3184.984619	1171.169800	78.086327	-3404.830566	602.373535	243.267380	-3411.909424	453.049042	168.241653	-3449.136230	245.563263	194.813980	-3473.920410	49.443325	115.817062	-3526.670898	36.616924	59.578896	-3335.836426	32.430122	101.608078	-3236.062988	620.616882	-168.699753	-3180.717285	480.282440	-93.440796	-3202.802002	273.784576	-133.402573	-3227.760010	80.170853	-69.345413	-3281.815674	75.444183	-16.290361	-3098.508057	46.090569	-40.902054
10	0.09000000	-3358.758301	1420.806396	263.919708	-3352.470947	1421.761719	-134.802765	-3409.400635	1472.569214	68.491409	-3252.888428	1369.587280	74.877434	-3358.937500	1082.612427	364.070923	-3439.143311	1088.194580	-212.119888	-3199.534424	876.528748	338.555023	-3440.658081	823.591461	-211.033325	-3289.220703	948.080139	221.201004	-3261.711182	945.927368	-70.583549	-3450.785400	964.910706	52.312183	-3478.088623	1281.787598	59.394711	-3176.738525	1169.812256	78.306915	-3396.802979	601.487122	243.756485	-3405.487305	452.143738	168.879135	-3445.764648	245.090103	195.057999	-3473.447510	49.474869	115.603432	-3526.423584	37.136528	59.430935	-3335.477783	32.269211	101.413422	-3226.290283	617.315552	-166.922241	-3169.080078	477.586487	-91.087250	-3180.089600	269.977051	-131.562057	-3193.514893	74.773048	-67.829041	-3247.735352	67.037857	-15.361588	-3062.793701	48.114063	-38.459770
